<?xml version="1.0" encoding="UTF-8" standalone="no"?>
<!-- Created with Inkscape (http://www.inkscape.org/) -->

<svg
   version="1.1"
   id="svg2"
   xml:space="preserve"
   width="100%"
   height="100%"
   viewBox="0 0 6666.6665 6666.6665"
   sodipodi:docname="vecteezy_cube-ice-icon-for-website-presentation-symbol_6843701.eps"
   xmlns:inkscape="http://www.inkscape.org/namespaces/inkscape"
   xmlns:sodipodi="http://sodipodi.sourceforge.net/DTD/sodipodi-0.dtd"
   xmlns="http://www.w3.org/2000/svg"
   xmlns:svg="http://www.w3.org/2000/svg"><defs
     id="defs6" /><sodipodi:namedview
     id="namedview4"
     pagecolor="#ffffff"
     bordercolor="#666666"
     borderopacity="1.0"
     inkscape:pageshadow="2"
     inkscape:pageopacity="0.0"
     inkscape:pagecheckerboard="0" /><g
     id="g8"
     inkscape:groupmode="layer"
     inkscape:label="ink_ext_XXXXXX"
     transform="matrix(1.3333333,0,0,-1.3333333,0,6666.6667)"><g
       id="g10"
       transform="scale(0.1)"><path
         d="m 12393.8,18946.1 v 11236 l 11392,-4133.6 32.2,-11235.7 z M 25019.2,35621.8 35299.8,31891.7 28106.9,29281.8 25019,28161.4 14708.9,31891.6 Z m 1197.4,-20809 v 11236.7 l 11389.7,4132.6 v -11237 z m -1581.5,-2838.9 c 42.3,-14.4 85.5,-24.9 129,-34.4 20.8,-4.5 41.3,-11 62.2,-14.4 63.1,-10.3 126.7,-16.4 190.7,-16.5 0.9,0 1.7,-0.2 2.5,-0.2 0.1,0 0.1,0 0.2,0 0.1,0 0.1,0 0.2,0 0.8,0 1.6,0.2 2.4,0.2 64.4,0.1 128.5,6.2 191.9,16.7 20.1,3.3 39.6,9.5 59.6,13.8 44.4,9.7 88.5,20.4 131.7,35.1 7.4,2.5 15.1,3.3 22.5,6 l 13783.4,5000.9 c 473.4,171.7 788.6,621.5 788.6,1125.1 v 13783.4 4.3 c 0,89.4 -13.2,175.9 -32.1,260.5 -3,13.2 -5.8,26.2 -9.3,39.2 -46.7,179.9 -133.7,344.5 -253.8,483 -0.2,0.2 -0.3,0.4 -0.4,0.5 -130.6,150.4 -297.2,270.9 -493,341.9 L 25428,38019.9 c -263.2,95.2 -551.7,95.9 -815.5,0.3 L 10789.6,33019.4 c -193.6,-70 -358.8,-189.1 -488.9,-337.7 -4.4,-5 -8.2,-10.2 -12.5,-15.3 -56.3,-66.5 -106,-138 -146.8,-215.2 -2.4,-4.5 -5.4,-8.6 -7.7,-13.1 -38.7,-75.3 -67.7,-155.3 -89.8,-237.9 -4.8,-18 -8.8,-35.8 -12.8,-54 -18.3,-83.5 -31.1,-168.8 -31.1,-256.6 V 18106.2 c 0,-504 315.7,-954.1 789.6,-1125.4 l 13822.9,-5000.9 c 7.4,-2.7 15.1,-3.5 22.6,-6"
         style="fill:#211d1d;fill-opacity:1;fill-rule:nonzero;stroke:none"
         id="path12" /></g></g></svg>
