<?xml version="1.0" encoding="UTF-8" standalone="no"?>
<!-- Created with Inkscape (http://www.inkscape.org/) -->

<svg
   version="1.1"
   id="svg2"
   xml:space="preserve"
   width="100%"
   height="100%"
   viewBox="0 0 386.16 433.33334"
   sodipodi:docname="snowflake_003.eps"
   xmlns:inkscape="http://www.inkscape.org/namespaces/inkscape"
   xmlns:sodipodi="http://sodipodi.sourceforge.net/DTD/sodipodi-0.dtd"
   xmlns="http://www.w3.org/2000/svg"
   xmlns:svg="http://www.w3.org/2000/svg"><defs
     id="defs6" /><sodipodi:namedview
     id="namedview4"
     pagecolor="#ffffff"
     bordercolor="#666666"
     borderopacity="1.0"
     inkscape:pageshadow="2"
     inkscape:pageopacity="0.0"
     inkscape:pagecheckerboard="0" /><g
     id="g8"
     inkscape:groupmode="layer"
     inkscape:label="ink_ext_XXXXXX"
     transform="matrix(1.3333333,0,0,-1.3333333,0,433.33333)"><g
       id="g10"
       transform="scale(0.1)"><path
         d="m 2371.89,507.93 4.67,486.738 438.02,-252.852 81.65,141.414 -400.17,231.02 -37.88,21.86 419.23,247.41 -162.39,93.78 -253.37,-149.55 -165.85,-97.87 -260.14,150.18 149.95,88.49 270.98,156.45 -271.82,156.94 -149.13,88.02 260.16,150.2 419.23,-247.45 162.37,93.77 -419.19,247.42 438,252.92 -81.63,141.39 -438.02,-252.88 -4.67,486.76 -162.4,-93.76 4.68,-486.77 -260.15,-150.15 -1.68,175.02 v 311.93 l -270.16,-155.96 -152.45,-86.06 v 300.39 l 423.9,239.3 v 187.54 l -423.9,-239.35 V 3250 h -163.26 v -505.78 l -423.892,239.34 v -187.52 l 423.892,-239.33 v -300.39 l -150.94,85.22 -271.663,156.84 v -313.52 l -1.695,-173.51 -260.113,150.23 2.461,255.29 2.222,231.46 -162.402,93.76 -4.692,-486.78 L 81.6445,2508.23 0.0117188,2366.81 438.023,2113.9 18.8047,1866.48 l 162.3713,-93.77 419.219,247.45 137.093,-79.14 123.098,-71.06 -149.547,-88.25 -271.426,-156.7 82.606,-47.67 189.203,-109.27 149.125,-88.01 L 600.414,1229.88 181.188,1477.29 18.8125,1383.52 438.004,1136.13 0,883.23 81.6367,741.809 519.648,994.727 l 4.692,-486.789 162.402,93.742 -4.683,486.79 260.132,150.16 1.676,-172.52 V 751.602 l 272.973,157.597 149.63,84.5 V 693.313 L 942.578,453.977 V 266.465 L 1366.47,505.813 V 0 h 163.26 v 505.793 l 423.92,-239.328 v 187.512 l -423.92,239.336 v 300.386 l 150.91,-85.222 271.7,-156.875 0.02,313.478 1.66,173.55 260.15,-150.15 -4.68,-486.8 z m -1480.566,1044.84 -125.136,72.24 259.342,149.71 221.03,-127.63 38.28,-22.08 -259.33,-149.7 z m 475.146,-368.57 -259.34,-149.77 0.04,299.49 221.04,127.6 38.26,22.09 z m 0,582.18 -232.82,134.45 -26.48,15.32 -0.02,255.21 v 44.17 l 259.32,-149.69 z m 163.26,299.46 259.32,149.73 v -299.46 l -221.03,-127.59 -38.29,-22.08 z m 259.3,-1031.41 -259.3,149.77 v 299.37 l 246.55,-142.27 12.75,-7.35 z m 81.67,440.88 -259.33,149.7 246.55,142.34 12.74,7.37 149.89,-86.53 109.49,-63.2 -259.34,-149.68"
         style="fill:#100f0d;fill-opacity:1;fill-rule:nonzero;stroke:none"
         id="path12" /></g></g></svg>
